<?xml version="1.0" encoding="UTF-8"?>
<svg enable-background="new 0 0 926 154" version="1.1" viewBox="0 0 926 154" xml:space="preserve" xmlns="http://www.w3.org/2000/svg" xmlns:cc="http://creativecommons.org/ns#" xmlns:dc="http://purl.org/dc/elements/1.1/" xmlns:rdf="http://www.w3.org/1999/02/22-rdf-syntax-ns#"><metadata><rdf:RDF><cc:Work rdf:about=""><dc:format>image/svg+xml</dc:format><dc:type rdf:resource="http://purl.org/dc/dcmitype/StillImage"/></cc:Work></rdf:RDF></metadata>
        <polygon points="735.28 11 628.4 11 734.48 142 841.36 142" fill="#5E92BD"/>
        <polygon points="605.28 11 498.4 11 604.48 142 711.36 142" fill="#89BA50"/>
        <polygon points="475.28 11 368.4 11 474.48 142 581.36 142" fill="#E26C44"/>
        <polygon points="345.28 11 238.4 11 344.48 142 451.36 142" fill="#FFE759"/>
    <g stroke="#000">
            <rect x="703.82" y="70" width="65.685" height="12"/>
            <path d="m893.82 38v-12h-186c-13.808 0-25 11.193-25 25v51c0 7.18-5.82 13-13 13-4.089 0-7.737-1.889-10.121-4.841l-60.415-74.85h-1e-3c-4.583-5.678-11.598-9.309-19.463-9.309-1.118 0-2.219 0.073-3.298 0.215l73.834 91.475v1e-3c4.583 5.677 11.6 9.308 19.464 9.308 13.807 0 25-11.193 25-25v-50.999c0-7.18 5.82-13 13-13h186z"/>
            <path d="m849.82 126.56c-7.195-4.39-12-12.313-12-21.359v-57.75h12v79.109z"/>
            <path d="m703.75 115c4.39 7.195 12.313 12 21.359 12h61.164v-12h-82.523z"/>
            <polygon points="541.82 93 541.82 81 572 81 582 93"/>
            <path d="m635.12 126.78-74.011-91.686c-4.585-5.557-11.524-9.098-19.29-9.098h-175c-9.045 0-16.969 4.804-21.357 12-2.311 3.788-3.643 8.238-3.643 13 0 11.803 8.18 21.696 19.179 24.319l58.849 14.036c5.72 1.364 9.973 6.508 9.973 12.646 0 7.18-5.82 13-13 13h-137.82c-12.702 0-23-10.297-23-23v-41.001c0-13.807-11.193-25-25-25h-175c-9.045 0-16.967 4.805-21.357 12-2.311 3.788-3.643 8.238-3.643 13 0 11.803 8.179 21.696 19.179 24.319l58.849 14.036c5.719 1.364 9.972 6.507 9.972 12.645 0 7.18-5.82 13-13 13h-77.357l1e-3 3e-3c4.389 7.194 12.312 11.997 21.356 11.997h56c9.045 0 16.968-4.805 21.357-12 2.311-3.788 3.643-8.238 3.643-13 0-11.803-8.179-21.696-19.179-24.319l-58.848-14.035c-5.721-1.365-9.973-6.508-9.973-12.646 0-7.18 5.82-13 13-13h175c7.18 0 13 5.82 13 13v41c0 10.523 4.65 19.954 12 26.37 6.151 5.37 14.192 8.63 23 8.63h137.82c9.045 0 16.968-4.805 21.357-12 2.311-3.788 3.643-8.238 3.643-13 0-11.803-8.179-21.696-19.179-24.319l-58.849-14.036c-5.721-1.364-9.973-6.508-9.973-12.646 0-7.18 5.82-13 13-13h175c4.09 0 7.737 1.89 10.12 4.844l60.415 74.848c4.583 5.677 11.6 9.308 19.464 9.308 1.121 1e-3 2.223-0.073 3.303-0.215z"/>
            <path d="m187 126.56c-7.196-4.39-12-12.313-12-21.359v-57.75h12v79.109z"/>
            <path d="m497.82 126.55c-7.195-4.39-12-12.313-12-21.359v-57.75h12v79.109z"/>
            <path d="m309.89 26.813c7.195 4.39 12 12.313 12 21.359v57.75h-12v-79.109z"/>
    </g>
</svg>
